<svg width="13" height="17" viewBox="0 0 13 17" fill="none" xmlns="http://www.w3.org/2000/svg">
<path fill-rule="evenodd" clip-rule="evenodd" d="M7.69167 8.33708C7.19625 9.58455 6.93623 10.9689 6.93333 12.3746V13.26H4.37667C4.38196 11.869 4.61273 10.4954 5.05375 9.22958C5.5209 7.87417 6.13576 6.61441 6.87917 5.48958H3.0875V2.89708H9.75V4.27125C8.95882 5.53038 8.26906 6.89286 7.69167 8.33708ZM11.2667 11.2129C10.8595 11.8874 10.581 12.6789 10.4542 13.5221L10.3729 14.0533L8.125 13.515C8.3562 11.9634 8.99645 10.5671 9.93417 9.56958L8.30917 9.15166L8.99167 7.2675L13 8.30166L12.8754 9.12333C12.2882 9.74934 11.7493 10.4492 11.2667 11.2129ZM3.34208 12.8633C3.18509 12.0281 3.18509 11.1556 3.34208 10.3204C3.52725 9.3517 3.79053 8.41143 4.1275 7.51541L3.97583 6.70083L0 7.9475V10.0158L1.625 9.51291C1.08364 10.9343 0.945447 12.5608 1.235 14.1029L3.43958 13.3946L3.34208 12.8633Z" fill="#B1BAD3"/>
</svg>
