<svg width="18" height="18" viewBox="0 0 18 18" fill="none" xmlns="http://www.w3.org/2000/svg">
<path d="M16.638 7.62077L9.74457 0.668266C9.65189 0.573391 9.54114 0.498046 9.41887 0.446681C9.29659 0.395316 9.16526 0.368972 9.03263 0.369203C8.90011 0.369022 8.76889 0.395374 8.64672 0.446704C8.52454 0.498035 8.41388 0.573305 8.32125 0.668078L1.35375 7.61345C0.484345 8.50116 -0.00178157 9.69473 4.90647e-06 10.9373C4.90647e-06 13.4451 1.94082 15.4999 4.40213 15.6816L4.41788 15.6825H4.76232C5.4721 15.6827 6.17303 15.5249 6.81432 15.2207L6.78525 15.2331C6.31185 15.7819 5.75603 16.2538 5.13769 16.6318L5.10732 16.6491C5.03144 16.697 4.96893 16.7634 4.92559 16.842C4.88225 16.9206 4.8595 17.0089 4.85944 17.0987C4.85957 17.2384 4.9146 17.3725 5.01266 17.4721C5.11073 17.5716 5.24398 17.6286 5.38369 17.6308H12.6068C12.7213 17.6293 12.8322 17.5909 12.9232 17.5214C13.0141 17.4518 13.0802 17.3547 13.1116 17.2445C13.143 17.1344 13.138 17.0171 13.0974 16.91C13.0567 16.8029 12.9827 16.7118 12.8861 16.6502L12.8837 16.6491C12.2516 16.2574 11.7111 15.7928 11.2508 15.2573L11.2429 15.2483C11.8358 15.5314 12.5314 15.6968 13.2653 15.6977H13.6103C16.0749 15.501 18 13.4524 18 10.9545C18.0016 9.70716 17.5117 8.5094 16.6363 7.62077L16.6367 7.62133L16.638 7.62077ZM8.74125 10.7226L8.24682 12.8282H3.18938L3.62363 10.7826L3.76575 10.708C5.66119 9.75658 6.74794 9.14195 6.74794 8.86483C6.60959 8.80761 6.4602 8.78205 6.31069 8.79002H6.31294C5.91317 8.7935 5.52525 8.92616 5.20707 9.1682L5.21157 9.16483L4.89694 9.38983L3.94557 7.6292L4.17057 7.4492C4.78857 6.9812 5.57063 6.69977 6.41869 6.69977C6.43444 6.69977 6.45 6.69977 6.46575 6.70033H6.46369C8.03682 6.70033 9.13838 7.54708 9.13838 8.76095C9.12354 9.16858 9.00204 9.56518 8.78601 9.91116C8.56999 10.2572 8.26698 10.5404 7.90725 10.7327L7.89488 10.7389L8.74125 10.7226ZM12.8618 12.8282H10.5315L11.1384 10.0633L10.5163 10.5731L9.39975 9.07445L12.2471 6.75939H14.1953L12.8618 12.8282Z" fill="#B1BAD3"/>
</svg>
