<svg width="24" height="26" viewBox="0 0 24 26" fill="none" xmlns="http://www.w3.org/2000/svg">
<path fill-rule="evenodd" clip-rule="evenodd" d="M0 0H8.94999C7.46988 1.24328 6.31978 2.8733 5.63991 4.74391H0V0ZM0 20.3231H15.6399V25.0667H0V20.3231ZM5.00992 10.1669H0V14.9104H6.70002C5.80064 13.484 5.22595 11.8614 5.02005 10.1669H5.00992ZM21.3799 15.015L24 19.3095L20.97 21.3364L18.3001 16.9691C17.4601 17.272 16.5601 17.4393 15.6301 17.4393C11.0402 17.4393 7.31014 13.5417 7.31014 8.74569C7.31014 3.94967 11.0402 0.0521137 15.6301 0.0521137C20.2201 0.0521137 23.9501 3.94967 23.9501 8.74569C23.9501 11.2115 22.9601 13.4269 21.3799 15.015ZM15.6301 3.8137C13.0303 3.8137 10.9101 6.02912 10.9101 8.74569C10.9101 11.4623 13.0303 13.6777 15.6301 13.6777C18.23 13.6777 20.3502 11.4623 20.3502 8.74569C20.3502 6.02912 18.2303 3.8137 15.6301 3.8137Z" fill="white"/>
</svg>
