<svg width="13" height="17" viewBox="0 0 13 17" fill="none" xmlns="http://www.w3.org/2000/svg">
<path d="M0.0172884 11.2598C0.280385 7.86515 3.89217 4.54223 4.73355 3.29752C5.46443 2.18032 5.18581 0.85301 4.95192 0.269439C4.94124 0.235189 4.93955 0.198723 4.94703 0.163616C4.95451 0.12851 4.9709 0.0959685 4.99459 0.0691842C5.01828 0.0423999 5.04846 0.022292 5.08217 0.0108327C5.11588 -0.00062668 5.15196 -0.00304405 5.18687 0.00381763H5.18581C8.83996 0.778901 9.02386 3.58439 8.91336 4.83972C8.80286 6.09505 9.02386 6.94159 9.82841 6.75857C10.6327 6.57529 10.362 4.51593 10.362 4.51593C10.362 4.51593 14.0556 8.94543 12.7017 13.3008C12.0208 15.5783 10.3251 16.5388 8.90021 16.9903C8.82654 17.0275 8.75288 16.9531 8.75288 16.8442C8.93704 16.1435 9.41298 15.5889 9.55742 14.8138C9.85209 13.5399 8.6821 12.3666 7.81467 11.7034C7.27191 11.2949 6.92383 10.6489 6.92383 9.92053C6.92383 9.8868 6.92436 9.8528 6.92593 9.81933V9.82411C6.92593 9.74974 6.81543 9.71255 6.78123 9.74974C6.23268 10.419 5.64844 11.0576 5.03111 11.6627L5.02533 11.6686C3.67406 13.1816 2.97739 14.8799 4.18421 16.7619C4.22104 16.8363 4.14737 16.9452 4.07634 16.9106C1.07678 16.0957 -0.164248 13.8052 0.0172884 11.2598Z" fill="#B1BAD3"/>
</svg>
