<svg width="17" height="17" viewBox="0 0 17 17" fill="none" xmlns="http://www.w3.org/2000/svg">
<path fill-rule="evenodd" clip-rule="evenodd" d="M15.1406 8.15681C12.0522 7.36065 9.63895 4.94735 8.84279 1.85902L8.49995 0.52948L8.15712 1.85902C7.36095 4.94735 4.94766 7.36065 1.85933 8.15681L0.529785 8.49965L1.85933 8.84319C4.94766 9.63935 7.36095 12.0526 8.15712 15.1403L8.49995 16.4705L8.84279 15.1403C9.63895 12.0526 12.0522 9.63935 15.1406 8.84319L16.4701 8.49965L15.1406 8.15681Z" fill="#B1BAD3"/>
<path fill-rule="evenodd" clip-rule="evenodd" d="M13.2819 5.4874C13.2819 4.66431 14.1843 3.71727 15.052 3.71727C14.2169 3.71727 13.2819 2.76031 13.2819 1.94785C13.2819 2.76031 12.3554 3.71727 11.5125 3.71727C12.3235 3.71727 13.2819 4.65935 13.2819 5.4874Z" fill="#B1BAD3"/>
</svg>
