<svg width="20" height="21" viewBox="0 0 20 21" fill="none" xmlns="http://www.w3.org/2000/svg">
<path d="M7.14373 19.2339V16.1003C7.14372 15.3063 7.77567 14.6612 8.55844 14.6562H11.4326C12.2189 14.6562 12.8563 15.3028 12.8563 16.1003V19.2248C12.8562 19.9135 13.404 20.4732 14.0829 20.4782H16.0438C16.9596 20.4806 17.8388 20.1133 18.4872 19.4572C19.1356 18.8012 19.5 17.9104 19.5 16.9814V8.0803C19.5 7.32988 19.1721 6.61806 18.6046 6.1366L11.943 0.732383C10.7785 -0.212874 9.11537 -0.182339 7.98539 0.805045L1.46701 6.1366C0.872741 6.60386 0.517552 7.31779 0.5 8.0803V16.9723C0.5 18.9086 2.04738 20.4782 3.95617 20.4782H5.87229C6.19917 20.4806 6.51349 20.3506 6.74547 20.117C6.97746 19.8834 7.10793 19.5655 7.10792 19.2339H7.14373Z" fill="white"/>
</svg>
