<svg width="17" height="17" viewBox="0 0 17 17" fill="none" xmlns="http://www.w3.org/2000/svg">
<g clip-path="url(#clip0_11_236)">
<path d="M8.5 0C3.808 0 0 3.808 0 8.5C0 13.192 3.808 17 8.5 17C13.192 17 17 13.192 17 8.5C17 3.808 13.192 0 8.5 0ZM15.249 7.65H12.308C12.2145 5.4995 11.7555 3.5785 11.067 2.2015C13.3025 3.111 14.943 5.1765 15.249 7.65ZM1.751 9.35H4.692C4.7855 11.5005 5.2445 13.4215 5.933 14.7985C4.81593 14.3419 3.84014 13.5969 3.10537 12.6397C2.3706 11.6824 1.90322 10.5471 1.751 9.35ZM4.692 7.65H1.751C2.057 5.1765 3.6975 3.111 5.933 2.2015C5.2445 3.5785 4.794 5.4995 4.692 7.65ZM9.656 13.8125C9.367 14.45 9.0695 14.8665 8.823 15.096C8.704 15.2065 8.619 15.2575 8.568 15.283C8.5255 15.3 8.5085 15.3 8.5 15.3C8.4915 15.3 8.4745 15.3 8.432 15.283C8.381 15.2575 8.296 15.2065 8.177 15.096C7.9305 14.8665 7.633 14.45 7.344 13.8125C6.851 12.7075 6.4855 11.152 6.392 9.35H10.5995C10.5145 11.152 10.149 12.7075 9.656 13.8125ZM6.392 7.65C6.477 5.848 6.8425 4.2925 7.344 3.1875C7.633 2.55 7.9305 2.1335 8.177 1.904C8.296 1.7935 8.381 1.7425 8.432 1.717C8.4745 1.7 8.4915 1.7 8.5 1.7C8.5085 1.7 8.5255 1.7 8.568 1.717C8.619 1.7425 8.704 1.7935 8.823 1.904C9.0695 2.1335 9.367 2.55 9.656 3.1875C10.149 4.2925 10.5145 5.848 10.608 7.65H6.392ZM11.067 14.7985C11.747 13.4215 12.206 11.5005 12.308 9.35H15.249C14.943 11.8235 13.3025 13.889 11.067 14.7985Z" fill="#B1BAD3"/>
</g>
<defs>
<clipPath id="clip0_11_236">
<rect width="17" height="17" fill="white"/>
</clipPath>
</defs>
</svg>
