<svg width="48" height="48" viewBox="0 0 48 48" fill="none" xmlns="http://www.w3.org/2000/svg">
<path fill-rule="evenodd" clip-rule="evenodd" d="M15.5376 17.4277H32.4624C37.1773 17.4277 41 21.1661 41 25.777V35.6507C41 40.2616 37.1773 44 32.4624 44H15.5376C10.8227 44 7 40.2616 7 35.6507V25.777C7 21.1661 10.8227 17.4277 15.5376 17.4277ZM23.9898 34.6589C24.9857 34.6589 25.7782 33.8838 25.7782 32.91V28.4978C25.7782 27.5438 24.9857 26.7687 23.9898 26.7687C23.0143 26.7687 22.2218 27.5438 22.2218 28.4978V32.91C22.2218 33.8838 23.0143 34.6589 23.9898 34.6589Z" fill="white"/>
<path opacity="0.4" d="M35.0456 14.7919V17.7333C34.3343 17.5346 33.5824 17.4352 32.8101 17.4352H31.4891V14.7919C31.4891 10.7574 28.1359 7.47805 24.0104 7.47805C19.8848 7.47805 16.5316 10.7375 16.5113 14.7522V17.4352H15.2106C14.418 17.4352 13.6661 17.5346 12.9548 17.7532V14.7919C12.9751 8.82953 17.9135 4 23.9697 4C30.1072 4 35.0456 8.82953 35.0456 14.7919Z" fill="white"/>
</svg>
