<svg width="18" height="18" viewBox="0 0 18 18" fill="none" xmlns="http://www.w3.org/2000/svg">
<g clip-path="url(#clip0_1_794)">
<path fill-rule="evenodd" clip-rule="evenodd" d="M14.85 0H3.15L0 3.15V14.85L3.15 18H14.85L18 14.85V3.15L14.85 0ZM15.9469 13.5169L13.4919 15.9713H4.49194L2.03737 13.5169V4.51613L4.49175 2.06175H13.4921L15.9467 4.51613L15.9469 13.5169ZM9 6.70087H8.9835C8.78116 6.70084 8.58336 6.7608 8.4151 6.87319C8.24684 6.98558 8.11569 7.14533 8.03824 7.33226C7.96078 7.51919 7.9405 7.72488 7.97995 7.92334C8.0194 8.12179 8.11681 8.30409 8.25988 8.44718C8.40294 8.59027 8.58522 8.68772 8.78367 8.7272C8.98211 8.76669 9.18781 8.74644 9.37475 8.66902C9.56169 8.5916 9.72148 8.46048 9.83389 8.29224C9.94631 8.12401 10.0063 7.92621 10.0063 7.72388V7.71581C10.0041 7.44895 9.8977 7.19352 9.7098 7.00402C9.5219 6.81451 9.26739 6.70593 9.00056 6.70144H9V6.70087ZM5.27812 3.27319H12.7236L14.7281 5.27812V12.7236L12.7234 14.7281H5.27794L3.27319 12.7234V5.27794L5.27812 3.27319ZM7.87125 12.765C7.90387 12.765 7.93463 12.759 7.96163 12.7479L7.99594 12.7393C10.0153 12.1588 11.5011 10.3172 11.5453 8.11669C11.5453 6.47231 10.6371 5.25281 9.00056 5.25281H8.99981C7.66162 5.25281 6.57356 6.32438 6.546 7.65844L6.54656 7.65094C6.54214 7.70789 6.53989 7.765 6.53981 7.82212C6.53981 8.98875 7.48294 9.93563 8.64881 9.94106H8.65556C8.99579 9.92677 9.33115 9.85501 9.64744 9.72881C9.42637 10.8167 8.02744 11.2997 7.52831 11.4549C7.332 11.5206 7.29094 11.6353 7.332 11.7662L7.63462 12.5841L7.63519 12.5859C7.66406 12.6891 7.75837 12.765 7.87125 12.765Z" fill="#B1BAD3"/>
</g>
<defs>
<clipPath id="clip0_1_794">
<rect width="18" height="18" fill="white"/>
</clipPath>
</defs>
</svg>
