<svg width="17" height="17" viewBox="0 0 17 17" fill="none" xmlns="http://www.w3.org/2000/svg">
<g clip-path="url(#clip0_11_218)">
<path fill-rule="evenodd" clip-rule="evenodd" d="M0.000244141 0.942701V2.83395H1.89149V16.0584H3.54209C3.74874 15.2291 4.48665 14.6245 5.36587 14.6245C5.78429 14.6246 6.19071 14.7644 6.52063 15.0217C6.85056 15.2791 7.08508 15.6393 7.18699 16.0451L7.18965 16.0578H9.83899C10.0457 15.2285 10.7836 14.624 11.6628 14.624C12.0812 14.624 12.4876 14.7638 12.8175 15.0212C13.1475 15.2786 13.382 15.6387 13.4839 16.0445L13.4866 16.0573H15.1228V2.83289H16.9997V0.941639L0.000244141 0.942701ZM9.44215 10.8595H4.72465V9.4427H9.44215V10.8595ZM12.2758 7.08395H4.72518V5.66711H12.2758V7.08395Z" fill="#B1BAD3"/>
</g>
<defs>
<clipPath id="clip0_11_218">
<rect width="17" height="17" fill="white"/>
</clipPath>
</defs>
</svg>
