<svg width="17" height="17" viewBox="0 0 17 17" fill="none" xmlns="http://www.w3.org/2000/svg">
<path d="M8.50011 0L1.50195 3.00316C1.50195 13.9963 8.50011 17 8.50011 17C8.50011 17 15.4983 13.9968 15.4983 3.00316L8.50011 0ZM9.44202 8.76934V12.2756H7.55077V8.76934C6.70767 8.39481 6.13073 7.56553 6.13073 6.60078C6.13081 6.17489 6.24585 5.75692 6.4637 5.39096C6.68156 5.02501 6.99415 4.72465 7.36851 4.52157C7.74287 4.31849 8.1651 4.22023 8.59065 4.23715C9.01621 4.25407 9.42931 4.38554 9.78636 4.6177C10.1434 4.84986 10.4312 5.1741 10.6193 5.55619C10.8074 5.93829 10.8889 6.36408 10.8551 6.78863C10.8214 7.21318 10.6737 7.62076 10.4276 7.96834C10.1815 8.31593 9.84613 8.59065 9.45689 8.7635L9.44202 8.76934Z" fill="#B1BAD3"/>
</svg>
