<svg width="17" height="17" viewBox="0 0 17 17" fill="none" xmlns="http://www.w3.org/2000/svg">
<path fill-rule="evenodd" clip-rule="evenodd" d="M7.64363 2.50944C4.89014 2.50944 2.658 4.74158 2.658 7.49507C2.658 10.2486 4.89014 12.4807 7.64363 12.4807C10.3971 12.4807 12.6293 10.2486 12.6293 7.49507C12.6293 4.74158 10.3971 2.50944 7.64363 2.50944ZM1.24133 7.49507C1.24133 3.95918 4.10774 1.09277 7.64363 1.09277C11.1795 1.09277 14.0459 3.95918 14.0459 7.49507C14.0459 11.031 11.1795 13.8974 7.64363 13.8974C4.10774 13.8974 1.24133 11.031 1.24133 7.49507Z" fill="#566771"/>
<path opacity="0.4" fill-rule="evenodd" clip-rule="evenodd" d="M11.5303 10.6868L15.7588 14.9042L14.7583 15.9072L10.5299 11.6898L11.5303 10.6868Z" fill="#566771"/>
</svg>
