<svg width="17" height="17" viewBox="0 0 17 17" fill="none" xmlns="http://www.w3.org/2000/svg">
<path d="M14.8694 8.5C14.8664 8.14493 14.8355 7.7906 14.777 7.44016L14.7824 7.48L16.9997 5.88625L15.065 2.61375L12.5504 3.69059C12.0196 3.26622 11.4233 2.92695 10.7836 2.68547L10.7391 2.67059L10.4347 0H6.56528L6.26094 2.67059C5.56694 2.93091 4.9675 3.27516 4.43763 3.69963L4.44904 3.69059L1.93472 2.61375L0 5.88625L2.21732 7.48C2.16171 7.81626 2.13264 8.1562 2.13037 8.49681V8.5C2.13363 8.86284 2.16515 9.21559 2.22275 9.55984L2.21732 9.52L0 11.1138L1.93472 14.3862L4.44931 13.3094C4.98009 13.7338 5.57645 14.073 6.21611 14.3145L6.26067 14.3294L6.56501 17H10.4344L10.7388 14.3294C11.4328 14.0691 12.0322 13.7248 12.5621 13.3004L12.5507 13.3094L15.0653 14.3862L17 11.1138L14.7827 9.52C14.8349 9.21559 14.8664 8.86284 14.8696 8.50319L14.8694 8.5ZM8.5 10.8019C8.03426 10.8019 7.57898 10.6669 7.19173 10.414C6.80449 10.161 6.50266 9.80152 6.32443 9.3809C6.1462 8.96028 6.09957 8.49745 6.19043 8.05092C6.28129 7.60439 6.50557 7.19423 6.83489 6.87231C7.16422 6.55038 7.58381 6.33114 8.0406 6.24232C8.49739 6.1535 8.97086 6.19909 9.40115 6.37332C9.83144 6.54754 10.1992 6.84258 10.458 7.22113C10.7167 7.59968 10.8548 8.04473 10.8548 8.5C10.8505 9.76969 9.79887 10.7982 8.5 10.8019Z" fill="#B1BAD3"/>
</svg>
