<svg width="17" height="17" viewBox="0 0 17 17" fill="none" xmlns="http://www.w3.org/2000/svg">
<g clip-path="url(#clip0_11_195)">
<path d="M8.50003 -0.000274658H8.47772C4.53053 -0.000274658 1.33081 3.19944 1.33081 7.14663C1.33081 7.19391 1.33134 7.24119 1.3324 7.28848V7.28157V13.2247H5.95056V8.13157H3.77615V7.28157C3.7744 7.22953 3.77351 7.17746 3.7735 7.12538C3.7735 4.53979 5.86981 2.44348 8.4554 2.44348H8.50269H8.50003H8.54519C11.1308 2.44348 13.2271 4.53979 13.2271 7.12538C13.2271 7.1801 13.226 7.23482 13.2244 7.28954V7.28157V8.13157H11.05V13.2247H13.0544C12.5938 14.3228 11.1207 14.5565 8.50003 14.5565V17.0003C10.8306 17.0003 15.6682 17.0003 15.6682 12.3821V7.2821C15.6692 7.24226 15.6692 7.19498 15.6692 7.14769C15.6692 3.20051 12.4695 0.000787842 8.52234 0.000787842H8.49844H8.4995L8.50003 -0.000274658Z" fill="#B1BAD3"/>
</g>
<defs>
<clipPath id="clip0_11_195">
<rect width="17" height="17" fill="white"/>
</clipPath>
</defs>
</svg>
