<svg width="17" height="17" viewBox="0 0 17 17" fill="none" xmlns="http://www.w3.org/2000/svg">
<path d="M14.5231 7.99012C13.9614 5.75389 12.8724 3.8617 11.4197 2.44103L11.4059 2.42848H13.8143V0H3.18839V2.42848H6.29106C6.22908 4.74121 5.74441 6.90823 4.92309 8.85425L4.95922 8.75914C4.59089 8.59684 4.16535 8.50212 3.72017 8.4997H3.7191C1.66494 8.49949 0 10.4024 0 12.7497C0 15.0971 1.66511 17 3.7191 17C5.77327 17 7.43821 15.0971 7.43821 12.7497C7.43709 11.8161 7.16318 10.9096 6.65993 10.1741L6.66612 10.1832C7.64752 8.08665 8.27068 5.61729 8.38596 2.99493L8.38773 2.95344C10.2599 4.09018 11.6806 5.96072 12.3725 8.22204L12.39 8.28882C11.3427 8.90019 10.6383 10.1244 10.6383 11.5359C10.6383 13.5435 12.062 15.1711 13.8191 15.1711C15.5761 15.1711 17 13.5441 17 11.5359C17 9.81047 15.9481 8.36593 14.5368 7.99376L14.5155 7.98891L14.5231 7.99012Z" fill="#B1BAD3"/>
</svg>
