<svg
  width="1342"
  height="1342"
  viewBox="0 0 1342 1342"
  fill="none"
  xmlns="http://www.w3.org/2000/svg"
>
  <g clip-path="url(#clip0_780_189)">
    <path
      d="M1342 295.03V1083.11C1342 1101.25 1328.9 1116.01 1312.71 1116.01H29.2885C13.1008 1116.01 0 1101.25 0 1083.11V295.03C0 276.96 13.1008 262.278 29.2885 262.278H1312.71C1328.9 262.278 1342 276.96 1342 295.03V295.03Z"
      fill="#334552"
    />
    <path d="M967 833H123V998H967V833Z" fill="#263742" />
    <path
      d="M638 607H155C137.327 607 123 621.327 123 639C123 656.673 137.327 671 155 671H638C655.673 671 670 656.673 670 639C670 621.327 655.673 607 638 607Z"
      fill="#0C1D29"
    />
    <path d="M1342 358H-3V546H1342V358Z" fill="#0C1D29" />
    <path
      d="M215.411 225.988H1199.17C1199.17 266.043 1166.65 298.569 1126.59 298.569H142.83C142.83 258.514 175.356 225.988 215.411 225.988V225.988Z"
      fill="#263742"
    />
    <path
      fill-rule="evenodd"
      clip-rule="evenodd"
      d="M1166.5 504.5C1055.2 504.5 1015 581.948 1015 623.5H945C945 545.052 1014.8 434.5 1166.5 434.5V504.5Z"
      fill="#3C8725"
    />
    <path
      fill-rule="evenodd"
      clip-rule="evenodd"
      d="M1079.44 665C1190.74 665 1230.94 587.552 1230.94 546L1300.94 546C1300.94 624.448 1231.14 735 1079.44 735L1079.44 665Z"
      fill="#3C8725"
    />
    <path d="M1165.5 369V569.878L1265.94 469.439L1165.5 369Z" fill="#69E244" />
    <path d="M1080.44 800.5L1080.44 599.622L980 700.061L1080.44 800.5Z" fill="#69E244" />
  </g>
  <defs>
    <clipPath id="clip0_780_189">
      <rect width="1342" height="1342" fill="white" />
    </clipPath>
  </defs>
</svg>
