<svg xmlns="http://www.w3.org/2000/svg" width="101" height="68" viewBox="0 0 101 68" fill="none">
  <path
    d="M100.5 5.98447V64.7087C100.5 66.0608 99.5238 67.1604 98.3175 67.1604H2.68245C1.47621 67.1604 0.5 66.0608 0.5 64.7087V5.98447C0.5 4.63797 1.47621 3.54395 2.68245 3.54395H98.3175C99.5238 3.54395 100.5 4.63797 100.5 5.98447V5.98447Z"
    fill="#334552"
  />
  <path
    d="M18.8572 38.0035C26.2193 38.0035 32.1875 32.0353 32.1875 24.6731C32.1875 17.311 26.2193 11.3428 18.8572 11.3428C11.4951 11.3428 5.52686 17.311 5.52686 24.6731C5.52686 32.0353 11.4951 38.0035 18.8572 38.0035Z"
    fill="#0C1D29"
  />
  <path
    d="M48.3849 67.1604H2.68245C1.47621 67.1604 0.5 66.0607 0.5 64.7086V49.9981C5.59425 46.1157 11.9565 43.8154 18.8573 43.8154C33.2087 43.8154 45.2262 53.7739 48.3849 67.1604V67.1604Z"
    fill="#0C1D29"
  />
  <path d="M94.4295 38.5474H47.3413V43.2377H94.4295V38.5474Z" fill="#0C1D29" />
  <path
    d="M47.3413 49.2241H92.0844C93.3804 49.2241 94.4295 50.2733 94.4295 51.5693C94.4295 52.8653 93.3804 53.9144 92.0844 53.9144H47.3413V49.2241V49.2241Z"
    fill="#0C1D29"
  />
  <path
    d="M16.5515 0.839844H89.8571C89.8571 3.82458 87.4335 6.24828 84.4487 6.24828H11.1431C11.1431 3.26354 13.5668 0.839844 16.5515 0.839844V0.839844Z"
    fill="#263742"
  />
  <path d="M61.3224 22.2549H47.3413V27.0911H61.3224V22.2549Z" fill="#3C8725" />
  <path d="M58.6235 17.1885V32.1571L66.1078 24.6728L58.6235 17.1885Z" fill="#69E244" />
  <path d="M70.8879 17.1885H66.5566V32.1571H70.8879V17.1885Z" fill="#3C8725" />
</svg>
