<svg xmlns="http://www.w3.org/2000/svg" width="950" height="581" fill="none" xmlns:v="https://vecta.io/nano"><path fill="#213744" d="M0 78h950v425H0z"/><path d="M634.85 443.066c-22.582 0-45.165.006-67.748-.008-2.156 0-4.345.034-6.459-.202-4.173-.462-6.849-2.086-6.81-5.298.039-3.017 2.584-4.581 6.523-5.007 2.507-.271 5.08-.334 7.622-.336l133.728.006c2.734 0 5.505.104 8.195.432 3.733.457 5.92 2.115 5.967 4.899.05 2.98-2.295 4.682-6.231 5.213-2.1.287-4.295.287-6.446.289l-68.341.012zm-.595 18.536c-14.908 0-29.821.058-44.729-.029-6.206-.036-9.753-2.524-8.749-5.937 1.049-3.569 4.841-4.373 9.35-4.371l53.558-.002h35.903c3.747-.006 7.11.51 8.857 3.184 2.314 3.547-1.257 7.023-7.697 7.102l-37.666.067h-8.827z" fill-rule="evenodd" fill="#e4063a"/><path d="M518.771 315.718c-1.886-1.508-4.599-2.176-7.898-2.261-4.006 0-7.541 1.004-10.607 3.097-3.182 2.093-4.715 4.522-4.954 7.286 0 2.344 1.062 4.269 3.185 5.945 2.242 1.593 4.949 2.428 8.134 2.428 3.889 0 7.425-1.086 10.49-3.262s4.596-4.69 4.596-7.535c.114-2.348-.943-4.275-2.946-5.698zM733.399 343.6h-46.554c-8.84.253-16.618 2.348-23.339 6.196-6.835 3.934-11.314 8.792-13.436 14.738l-9.548 27.212c-2.709 8.122 1.06 13.818 11.551 16.999 11.903 3.767 23.456 3.433 34.533-.755.707-.334 1.655-.669 2.949-1.173 1.176-.249 2.239 0 3.299.755.826.418 1.536.837 2.359 1.256 2.242 1.006 4.952 1.676 8.014 2.012.946.083 2.476.083 4.952.166h6.365c1.533-.083 2.709-.417 3.419-1.255l2.592-8.373c-4.005-.419-6.008-1.34-5.772-2.595.234-1.005.47-2.26.94-3.849.24-.504.476-1.091.59-1.676 4.123-11.31 9.781-27.971 17.086-49.658zm-45.024 8.958c3.185.085 8.485.085 16.149 0l-4.949 14.32-9.197 25.538c-1.06 2.595-3.065 4.688-6.245 6.363-3.066 1.676-6.365 2.512-9.9 2.595-7.189.085-10.021-2.18-8.488-6.699a725.25 725.25 0 0 1 9.074-26.125c.12-.417.237-.753.354-1.089l3.655-9.881c1.18-3.346 4.362-5.022 9.547-5.022zm-216.75 2.431c.233-.838.706-1.676.943-2.429h12.846c-.353.672-.587 1.425-.826 2.095l-13.436 38.935c-2.24 6.448-.354 11.136 5.775 14.232 4.008 2.012 9.077 3.016 15.442 3.182h.943.706.587c.473 0 .943 0 1.416-.083 1.65 0 2.71-.419 3.419-1.172 0-.085.117-.168.117-.168l2.595-8.205-2.006-.251c-.116 0-.353-.085-.47-.085-2.475-.504-3.652-1.591-3.772-3.179-.117-1.174 0-2.178.354-2.929l6.72-18.171 10.374-29.473c.587-1.425.94-2.595 1.293-3.684h-65.297c-1.886 5.609-4.832 14.82-8.721 27.629-3.889 12.476-8.015 20.6-12.257 24.367-3.889 3.181-8.017 5.025-12.376 5.693-1.886.085-3.302.085-4.362 0l6.838-19.424 13.438-38.265h-26.402l-7.188 20.681-16.619 46.891 23.69-.083c12.257.753 24.28-2.263 36.184-9.043 11.669-6.531 18.86-14.068 21.57-22.44l8.482-24.621zm85.332 4.271c3.889-3.184 8.017-5.109 12.376-5.696 1.769-.083 3.302 0 4.359 0l-6.835 19.426c-4.245 11.723-8.017 22.774-11.199 33.157l-1.767 5.106 26.402-.083 5.422-16.829c.353-1.174.826-2.429 1.296-3.769l7.662-21.939c2.122-4.269 4.361-7.453 6.601-9.375 3.889-3.184 8.014-5.109 12.376-5.696 1.769-.083 3.302 0 4.359 0l-6.835 19.426-13.436 38.263 26.402-.083 7.189-20.598 16.618-46.889c-11.786-.085-19.681 0-23.807 0-7.188-.421-14.379.502-21.567 2.678.353-.838.707-1.759 1.06-2.678-11.784-.085-19.684 0-23.81 0-12.14-.672-24.163 2.344-36.186 9.126-11.55 6.532-18.738 14.067-21.447 22.44l-8.488 24.532c-.353.751-1.649 4.605-4.122 11.47l26.282-.083c2.003-5.525 4.832-14.736 8.841-27.546 3.766-12.472 7.895-20.594 12.254-24.36zm289.359-6.449c-11.55 6.532-18.741 14.067-21.451 22.44l-8.487 24.532c-.353.751-1.653 4.605-4.126 11.47l26.403-.083c1.886-5.525 4.715-14.736 8.721-27.546 3.772-12.476 7.897-20.598 12.256-24.364 3.892-3.184 8.018-5.109 12.377-5.696 1.769-.083 3.304 0 4.362 0l-6.838 19.426-13.436 38.263 26.399-.083 7.191-20.598 16.619-46.889c-11.784-.085-19.682 0-23.81 0-12.14-.67-24.157 2.346-36.18 9.128zm-95.592-3.015c-6.834 3.934-11.433 8.792-13.433 14.738l-9.547 27.212c-2.712 8.122 1.057 13.818 11.544 16.999 11.907 3.767 23.459 3.433 34.537-.755.709-.334 1.652-.669 2.948-1.173 1.18-.249 2.24 0 3.3.755.826.418 1.535.837 2.359 1.256 2.359 1.006 4.951 1.676 8.017 2.012.94.083 2.592.083 4.949.166h6.479c1.418-.083 2.598-.417 3.304-1.255l2.593-8.373c-4.006-.419-6.009-1.34-5.772-2.595.233-1.005.47-2.26 1.06-3.849.116-.504.353-1.091.589-1.676l17.092-49.654h-46.674c-8.846.249-16.624 2.344-23.345 6.192zm24.873 2.762c3.185.085 8.604.085 16.148 0l-4.949 14.32-9.196 25.538c-1.06 2.595-3.063 4.688-6.248 6.363-3.063 1.676-6.362 2.512-9.898 2.595-7.191.085-10.02-2.18-8.49-6.699 2.242-6.865 5.188-15.574 9.08-26.125.117-.417.233-.753.353-1.089 1.296-3.684 2.476-6.95 3.652-9.881 1.177-3.346 4.36-5.022 9.548-5.022z" fill="#e4063a"/><g fill="#e50539"><path d="M538.618 209.441l10.31-10.306 52.576 18.167-52.59 8.782-10.296-16.643zm36.42 20.386l144.785-14.501c1.663-.145 1.786 1.278.868 1.458-.323.018-130.409 19.177-133.605 19.572-6.546.775-11.005-3.041-12.914-5.09-.548-.577-.05-1.33.866-1.439zm4.289-35.062l16.727-4.928c3.647-.791 7.464.053 9.915 1.474l-14.524 4.229c-1.413.415-1.514 1.836-.176 2.34l6.741 2.589c5.107 1.674.57 3.671.57 3.671l-19.528-7.268c-1.085-.397-1.511-1.565.275-2.107zm18.958 2.069s8.685-2.442 12.977-2.069c14.438 1.253 29.618 11.041 29.618 11.041s-13.72 1.858-15.803.781c-7.43-3.887-26.792-9.753-26.792-9.753zm-110.31 34.918c16.875 7.588 43.939 15.685 63.52 21.55 34.673 10.417 189.492 44 223.917 52.456 12.168 3.004 12.168 2.986 14.026.052l1.933-3.04c9.567 3.597 8.229-1.059 13.854-3.759l-9.592-2.988-.072-.035c-45.007 1.223-228.477-51.863-228.477-51.863s-.097-.81 2.454-.81c5.552.035 17.052-.342 18.315.106 22.6 8.296 95.912 28.746 97.372 27.092l10.31-5.937c.373-.197.818-.251 1.265-.124l85.675 25.742s2.801-3.652-.643-5.04c-6.963-2.768-12.838-4.82-12.838-4.82s.073-1.025 4.685-.737c13.828.9 28.127-7.501 32.216-9.75 4.857-2.7 8.304-1.927 11.177-.864.746.269.916.988.348 1.437l-28.13 21.714c2.454.773 4.287 1.17 6.246 1.53l33.715-23.301c.223-.16.818-.214 1.288-.054l15.734 5.294s1.01-6.402-1.619-7.772c-1.783-.935-13.431-4.642-21.487-8.347-2.306-1.044-.247-2.769-.247-2.769l16.627 6.116s1.911-3.256-1.213-4.606c-11.475-4.895-19.926-8.798-27.782-6.405-9.322 2.842-35.096 21.495-48.752 21.244-5.179-.091-65.4-22.378-71.921-25.345-4.214-1.891-1.833-3.598-1.833-3.598l38.189 13.134s2.12-3.006.036-3.905c-2.626-1.135-6.048-2.447-9.366-3.724-.743-.288-.893-.99-.295-1.438 1.36-.99 2.022-1.35 4.031-2.915.395-.289.94-.36 1.435-.198l37.001 13.221s-.284-1.607-.843-3.365c-1.338-4.196-1.238-7.178-5.352-8.761l-31.746-12.142c-1.683-.683.122-4.731.122-4.731l13.161 4.393c.467.164 1.04.091 1.413-.195l16.73-12.654.022-.124c-5.154-4.875-17.075-9.535-29.615-8.618-29.54 2.104-147.333 14.714-151.723 15.112-1.141.106-3.667.539-3.794 2.446-.02.378.153.972.472 1.492 1.539 2.231 2.156 2.611 2.156 2.611l-16.482 4.46a1.51 1.51 0 0 1-.843.018c-3.346-.864-26.613-7.158-58.883-21.604-.498-.215-1.093-.18-1.513.071-1.911 1.225-4.982 3.294-6.493 3.273-1.933-.071-2.951-1.475-2.951-1.475 5.75-5.918 16.632-23.799 20.346-31.715.495-1.062 1.881-1.763 3.469-1.854 1.958-.087 4.635-.176 6.546-.051 8.175.557 14.668 1.383 41.585 9.137 19.676 5.631 52.24 18.152 61.214 21.659.445.163.643.467.643.773 0 .342-.248.666-.718.846 1.438-.142 32.861-2.126 35.735-2.344.793-.071 1.288-.612 1.065-1.168-1.09-2.553-.372-6.418-6.567-9.655-19.801-10.506-38.042-16.731-46.916-17.468-5.725-.466-9.341 1.907-21.286 4.877-4.51 1.133-12.688-.612-17.025-1.478-29.493-5.683-36.008-7.824-52.74-9.91-6.268-.793-13.578-1.115-18.488 4.91-1.683 2.085-6.396 10.792-12.813 20.991-9.039 14.381-5.642 18.233 11.01 25.699zm-51.672 23.173c2.462-3.504 21.411-22.545 22.229-23.337l.167-.164.234.108s2.061 1.068.303 3.198c-5.808 7.063-21.879 25.307-22.043 25.487l-.259.288-.233-.288c-.095-.107-2.273-2.674-.398-5.292zm-1.756 7.566c.885 1.068 2.93 1.03 3.842-.015l17.381-19.98c3.207-3.754 6.932-7.456 8.529-11.811l10.704-27.112a6.32 6.32 0 0 1-1.827-.326 6.72 6.72 0 0 1-1.313-.65c-2.131-1.535-4.354-3.648-6.254-5.616l-19.868 27.491c-4.356 7.73-11.897 28.808-12.929 31.988-.632 1.879.141 4.152 1.735 6.031zm55.679-114.609c6.406-6.924 24.221-24.876 24.399-25.074l.286-.264.262.264c.103.107 2.492 2.611.467 5.204-2.776 3.464-23.726 22.163-24.611 22.961l-.18.16-.259-.107c-.028-.017-2.312-1.049-.364-3.144zm-18.881 32.799c3.759-.055 7.909-.071 10.552.053a6.29 6.29 0 0 1 1.508.247c.698.214 1.324.532 1.813.908l20.068-24.205c4.827-7.6 12.891-28.216 14.06-31.324.726-1.955-.101-4.386-1.998-6.32-.857-.89-2.776-.907-3.63-.02l-19.501 19.942c-3.58 3.711-7.708 7.333-10.117 12.928l-12.755 27.791z"/><path d="M459.403 184.904s.069-.555 2.031-.869c3.686-.573 15.475-.241 15.475-.241.117.017.211.057.303.092 1.166.41.651 1.184.651 1.184l-2.846 5.198-15.614-5.364zm-2.287.925c2.824 4.941 7.305 9.919 12.068 13.432a2.97 2.97 0 0 0 .514.259c.885.297 2.126.184 2.543-.5 3.246-5.106 5.719-9.454 8.521-15.06.278-.556-.117-1.277-.749-1.647-.119-.09-.233-.148-.35-.183-.142-.04-.281-.056-.401-.075-.208-.016-.372-.016-.603-.016-5.581-.281-14.894-.224-19.815.648-2.053.368-2.59 1.589-1.728 3.142zm89.18 11.689h-8.771l-20.474 11.589-6.215-16.709v25.333l35.46-20.213zm-25.365-.687l4.423-4.287-2.426-.48-2.314 2.537-.275-3.047-2.473-.488.92 5.344 2.145.421z"/></g><path stroke="#fff" stroke-width="2" d="M63 361h240v100H63z"/><g fill="#fff"><path d="M113.648 415.224v-4.033h6.05c1.481 0 2.632-.376 3.452-1.128.832-.763 1.248-1.846 1.248-3.247v-.034c0-1.402-.416-2.478-1.248-3.23-.82-.752-1.971-1.128-3.452-1.128h-6.05v-4.085h7.315c1.732 0 3.247.354 4.546 1.06 1.299.695 2.307 1.675 3.025 2.939.729 1.265 1.093 2.74 1.093 4.427v.034c0 1.697-.364 3.179-1.093 4.443a7.44 7.44 0 0 1-3.025 2.94c-1.299.695-2.814 1.042-4.546 1.042h-7.315zM111.051 423v-24.661h5.161V423h-5.161zm21.328 0v-24.661h4.99V423h-4.99zm13.809.291c-1.22 0-2.291-.234-3.213-.701-.923-.479-1.647-1.134-2.171-1.965-.512-.844-.769-1.801-.769-2.872v-.034c0-1.116.279-2.068.838-2.854.558-.797 1.367-1.424 2.426-1.88s2.347-.735 3.863-.837l7.143-.444v3.11l-6.391.41c-.957.057-1.687.285-2.188.684-.501.387-.752.905-.752 1.555v.034a1.88 1.88 0 0 0 .769 1.589c.513.376 1.202.564 2.068.564.741 0 1.401-.142 1.982-.427.593-.296 1.054-.695 1.385-1.196a3.04 3.04 0 0 0 .512-1.726v-5.554c0-.809-.256-1.447-.769-1.914-.512-.479-1.259-.718-2.238-.718-.935 0-1.675.193-2.222.581s-.883.877-1.008 1.47l-.035.153h-4.563l.018-.205a5.73 5.73 0 0 1 1.11-3.008c.661-.877 1.573-1.56 2.735-2.05 1.173-.502 2.563-.752 4.17-.752 1.583 0 2.956.256 4.118.769 1.162.501 2.063 1.213 2.701 2.136.649.923.974 1.999.974 3.23V423h-4.991v-2.734h-.102a5.57 5.57 0 0 1-1.333 1.623c-.536.444-1.145.792-1.829 1.043-.683.239-1.43.359-2.238.359zm16.491 5.742c-.49 0-.963-.023-1.418-.069l-1.128-.153v-3.709l.7.103a6.3 6.3 0 0 0 .975.068c.752 0 1.344-.125 1.777-.376s.758-.684.974-1.299l.222-.598-6.477-18.32h5.486l4.136 15.312-.667-.991h.94l-.666.991 4.135-15.312h5.264l-6.289 18.645c-.478 1.435-1.082 2.569-1.811 3.401-.718.831-1.584 1.424-2.598 1.777s-2.199.53-3.555.53zM186.041 423v-24.661h4.512l13.415 19.295-4.323-3.264h2.153v-16.031h5.144V423h-4.478l-13.432-19.414 4.323 3.264h-2.17V423h-5.144zm33.001.376c-1.858 0-3.464-.382-4.82-1.145s-2.404-1.857-3.144-3.281-1.111-3.128-1.111-5.11v-.034c0-1.971.376-3.663 1.128-5.076.752-1.424 1.806-2.518 3.161-3.281s2.945-1.145 4.768-1.145c1.835 0 3.43.381 4.786 1.145 1.367.752 2.426 1.84 3.178 3.264.752 1.413 1.128 3.11 1.128 5.093v.034c0 1.994-.376 3.703-1.128 5.127-.74 1.424-1.788 2.518-3.144 3.281-1.356.752-2.957 1.128-4.802 1.128zm.017-3.914c.809 0 1.509-.216 2.102-.649.603-.444 1.065-1.082 1.384-1.914.33-.843.496-1.863.496-3.059v-.034c0-1.185-.166-2.194-.496-3.025s-.798-1.464-1.401-1.897c-.604-.445-1.311-.667-2.12-.667-.797 0-1.498.222-2.102.667-.592.433-1.054 1.065-1.384 1.897s-.496 1.84-.496 3.025v.034c0 1.196.16 2.216.479 3.059.33.832.798 1.47 1.401 1.914.604.433 1.316.649 2.137.649zM234.098 423l-4.871-18.32h5.024l2.769 13.586h.103l3.247-13.586h4.785l3.264 13.586h.102l2.786-13.586h4.922L251.375 423h-5.314l-3.316-12.954h-.102L239.344 423h-5.246z"/><rect x="62" y="119" width="121" height="50" rx="10"/></g><path d="M88.406 147.446v-2.881h4.358c1.058 0 1.88-.269 2.466-.806.586-.545.879-1.318.879-2.319v-.024c0-1.001-.293-1.77-.879-2.308s-1.408-.805-2.466-.805h-4.358v-2.918h5.249c1.245 0 2.328.253 3.247.757.928.497 1.648 1.196 2.161 2.1.521.903.781 1.957.781 3.161v.025c0 1.212-.261 2.27-.781 3.174-.513.903-1.233 1.603-2.161 2.099-.92.497-2.002.745-3.247.745h-5.249zM86.55 153v-17.615h3.687V153H86.55zm15.32 0v-13.135h3.565v2.259h.097c.187-.798.541-1.416 1.062-1.856.529-.439 1.184-.659 1.966-.659a4.15 4.15 0 0 1 .573.037 2.74 2.74 0 0 1 .501.109v3.125c-.163-.057-.362-.101-.598-.134-.236-.041-.485-.061-.745-.061-.602 0-1.119.114-1.55.342-.423.228-.749.565-.977 1.013-.22.439-.329.977-.329 1.611V153h-3.565zm14.929.269c-1.326 0-2.478-.273-3.454-.818a5.56 5.56 0 0 1-2.259-2.344c-.529-1.025-.793-2.246-.793-3.662v-.025c0-1.416.269-2.632.806-3.649a5.61 5.61 0 0 1 2.27-2.356c.977-.546 2.12-.818 3.43-.818 1.319 0 2.462.272 3.43.818.977.545 1.734 1.326 2.271 2.343s.806 2.238.806 3.662v.025c0 1.424-.269 2.649-.806 3.674-.529 1.017-1.278 1.799-2.246 2.344-.969.537-2.12.806-3.455.806zm.013-2.796c.585 0 1.09-.154 1.513-.464.432-.317.761-.777.989-1.379.236-.602.354-1.331.354-2.185v-.025c0-.854-.118-1.578-.354-2.172-.236-.603-.57-1.062-1.001-1.38s-.936-.476-1.514-.476-1.082.159-1.513.476-.765.777-1.001 1.38c-.236.594-.354 1.318-.354 2.172v.025c0 .854.114 1.583.341 2.185.236.602.57 1.062 1.001 1.379.432.31.944.464 1.539.464zm8.471 2.527v-13.135h3.565v2.185h.097c.261-.748.716-1.342 1.367-1.782.652-.448 1.417-.671 2.295-.671.611 0 1.16.105 1.648.317a3.28 3.28 0 0 1 1.245.903c.342.399.586.883.733 1.453h.085a4.01 4.01 0 0 1 .891-1.416c.391-.399.859-.708 1.404-.928a4.71 4.71 0 0 1 1.77-.329c.863 0 1.616.183 2.259.549s1.143.883 1.501 1.55c.358.659.537 1.433.537 2.32V153h-3.564v-8.093c0-.513-.086-.944-.257-1.294-.162-.35-.402-.615-.72-.794s-.712-.268-1.184-.268c-.448 0-.842.106-1.184.317a2.06 2.06 0 0 0-.793.855c-.179.366-.269.793-.269 1.281V153h-3.455v-8.203c0-.472-.085-.875-.256-1.209-.171-.341-.415-.598-.732-.769-.318-.179-.696-.268-1.136-.268a2.17 2.17 0 0 0-1.196.329c-.342.212-.61.509-.806.891-.187.375-.28.81-.28 1.307V153h-3.565zm27.82.269c-1.326 0-2.478-.273-3.455-.818s-1.729-1.327-2.258-2.344c-.529-1.025-.793-2.246-.793-3.662v-.025c0-1.416.268-2.632.805-3.649.537-1.026 1.294-1.811 2.271-2.356s2.12-.818 3.43-.818c1.318 0 2.462.272 3.43.818.977.545 1.734 1.326 2.271 2.343s.805 2.238.805 3.662v.025c0 1.424-.268 2.649-.805 3.674-.529 1.017-1.278 1.799-2.246 2.344-.969.537-2.12.806-3.455.806zm.012-2.796c.586 0 1.091-.154 1.514-.464.431-.317.761-.777.989-1.379.236-.602.354-1.331.354-2.185v-.025c0-.854-.118-1.578-.354-2.172-.236-.603-.57-1.062-1.001-1.38s-.936-.476-1.514-.476-1.082.159-1.514.476-.765.777-1.001 1.38c-.236.594-.354 1.318-.354 2.172v.025c0 .854.114 1.583.342 2.185.236.602.57 1.062 1.001 1.379.431.31.944.464 1.538.464z" fill="#000"/><path d="M79.106 214.744c-1.27 0-2.393-.188-3.369-.562-.977-.382-1.754-.936-2.332-1.66s-.899-1.595-.964-2.612l-.012-.159h3.259l.024.122c.081.415.252.785.513 1.111.269.325.647.578 1.135.757s1.103.268 1.843.268 1.343-.085 1.807-.256.806-.407 1.025-.708c.228-.309.342-.663.342-1.062v-.025c0-.537-.195-.964-.586-1.281-.382-.326-1.103-.602-2.161-.83l-2.026-.44c-1.082-.228-1.99-.549-2.722-.964-.724-.423-1.274-.948-1.648-1.575-.366-.635-.549-1.383-.549-2.246v-.024c0-1.001.269-1.872.806-2.613.545-.748 1.294-1.326 2.246-1.733.96-.407 2.067-.61 3.32-.61 1.261 0 2.36.191 3.296.573.944.383 1.689.936 2.234 1.66.553.717.871 1.579.952 2.588l.012.196h-3.259l-.012-.098c-.073-.48-.248-.879-.525-1.196-.277-.326-.643-.57-1.099-.733-.448-.171-.981-.256-1.599-.256-.651 0-1.196.089-1.636.269-.44.17-.773.406-1.001.708-.22.293-.33.618-.33.976v.025c0 .333.081.63.244.891.171.26.444.488.818.683.383.187.879.35 1.489.489l2.063.439c1.693.358 2.962.911 3.809 1.66.846.741 1.27 1.774 1.27 3.101v.012c0 1.09-.289 2.018-.867 2.783-.57.757-1.359 1.335-2.368 1.734-1.001.398-2.148.598-3.442.598zm-.598 2.026v-21.155h1.245v21.155h-1.245zM92.96 215v-14.221h-.085l-4.468 3.052v-3.284l4.553-3.162h3.662V215H92.96zm14.661.33c-1.489 0-2.767-.371-3.833-1.111-1.066-.749-1.888-1.803-2.466-3.162-.569-1.367-.854-2.987-.854-4.858v-.025c0-1.871.285-3.487.854-4.846.578-1.367 1.4-2.421 2.466-3.161s2.344-1.111 3.833-1.111c1.481 0 2.755.37 3.821 1.111s1.884 1.794 2.454 3.161c.577 1.359.866 2.975.866 4.846v.025c0 1.871-.289 3.491-.866 4.858-.57 1.359-1.388 2.413-2.454 3.162-1.066.74-2.34 1.111-3.821 1.111zm0-2.942c.724 0 1.339-.244 1.843-.733.513-.496.904-1.204 1.172-2.124.269-.927.403-2.038.403-3.332v-.025c0-1.294-.134-2.4-.403-3.32s-.659-1.624-1.172-2.112a2.55 2.55 0 0 0-1.843-.732 2.61 2.61 0 0 0-1.868.732c-.504.488-.891 1.192-1.159 2.112s-.403 2.026-.403 3.32v.025c0 1.294.134 2.405.403 3.332.268.92.655 1.628 1.159 2.124.513.489 1.136.733 1.868.733zM122.575 215v-17.615h4.26l4.98 12.696h.098l4.981-12.696h4.26V215h-3.284v-11.914h-1.721l3.662-5.212L133.024 215h-2.319l-6.788-17.126 3.663 5.212h-1.722V215h-3.283zm21.435 0v-13.135h3.565V215h-3.565zm1.782-14.868c-.537 0-.992-.183-1.367-.549a1.8 1.8 0 0 1-.549-1.319 1.81 1.81 0 0 1 .549-1.33 1.88 1.88 0 0 1 1.367-.55c.538 0 .989.183 1.355.55.375.366.562.809.562 1.33 0 .513-.187.952-.562 1.319a1.84 1.84 0 0 1-1.355.549zM150.211 215v-17.749h3.565V215h-3.565zm6.25 0v-17.749h3.565V215h-3.565zm6.226 0v-13.135h3.564V215h-3.564zm1.782-14.868a1.88 1.88 0 0 1-1.367-.549 1.8 1.8 0 0 1-.549-1.319 1.81 1.81 0 0 1 .549-1.33c.374-.367.83-.55 1.367-.55s.989.183 1.355.55c.375.366.562.809.562 1.33 0 .513-.187.952-.562 1.319a1.84 1.84 0 0 1-1.355.549zm10.327 15.137c-1.326 0-2.478-.273-3.454-.818a5.56 5.56 0 0 1-2.259-2.344c-.528-1.025-.793-2.246-.793-3.662v-.025c0-1.416.269-2.632.806-3.649a5.61 5.61 0 0 1 2.27-2.356c.977-.546 2.12-.818 3.43-.818 1.319 0 2.462.272 3.431.818a5.63 5.63 0 0 1 2.27 2.343c.537 1.018.806 2.238.806 3.662v.025c0 1.424-.269 2.649-.806 3.674-.529 1.017-1.278 1.799-2.246 2.344-.968.537-2.12.806-3.455.806zm.013-2.796c.586 0 1.09-.154 1.513-.464.432-.317.761-.777.989-1.379.236-.602.354-1.331.354-2.185v-.025c0-.854-.118-1.578-.354-2.172-.236-.603-.57-1.062-1.001-1.38s-.936-.476-1.514-.476-1.082.159-1.513.476-.765.777-1.001 1.38c-.236.594-.354 1.318-.354 2.172v.025c0 .854.114 1.583.342 2.185.236.602.569 1.062 1.001 1.379.431.31.944.464 1.538.464zM183.28 215v-13.135h3.565v2.149h.097c.334-.749.83-1.339 1.49-1.77.667-.432 1.493-.647 2.478-.647 1.448 0 2.563.435 3.344 1.306.79.871 1.184 2.075 1.184 3.613V215h-3.564v-7.727c0-.871-.203-1.542-.61-2.014-.399-.472-1.001-.708-1.807-.708-.529 0-.993.122-1.392.366-.39.244-.691.582-.903 1.013s-.317.936-.317 1.514V215h-3.565zM80.338 245.33c-1.709 0-3.194-.367-4.456-1.099-1.253-.741-2.222-1.79-2.905-3.149-.675-1.368-1.013-2.999-1.013-4.895v-.013c0-1.896.342-3.523 1.025-4.882s1.652-2.405 2.905-3.138 2.734-1.098 4.443-1.098c1.424 0 2.69.276 3.796.83 1.115.553 2.01 1.314 2.686 2.282.684.961 1.082 2.068 1.196 3.321l.012.122H84.44l-.049-.195c-.138-.652-.386-1.217-.745-1.697-.358-.489-.818-.867-1.379-1.136-.553-.268-1.196-.402-1.929-.402-.936 0-1.75.244-2.441.732-.692.48-1.225 1.168-1.599 2.063s-.562 1.961-.562 3.198v.013c0 1.237.187 2.307.562 3.21.374.895.907 1.587 1.599 2.075.7.488 1.518.733 2.454.733.708 0 1.339-.131 1.892-.391a3.73 3.73 0 0 0 1.392-1.123c.374-.488.639-1.078.793-1.77l.024-.122h3.589l-.012.134c-.114 1.245-.513 2.352-1.196 3.32-.684.961-1.583 1.713-2.698 2.259-1.107.545-2.372.818-3.796.818zm9.912-.33v-17.749h3.564v6.848h.098c.334-.797.838-1.412 1.514-1.843.675-.44 1.501-.659 2.478-.659.96 0 1.778.207 2.454.622.684.415 1.208 1.005 1.575 1.77.374.765.561 1.677.561 2.735V245H98.93v-7.532c0-.919-.216-1.635-.647-2.148s-1.054-.769-1.868-.769c-.521 0-.977.126-1.367.378a2.49 2.49 0 0 0-.916 1.026c-.212.431-.317.935-.317 1.513V245h-3.564zm14.686 0v-13.135h3.564v2.259h.098c.187-.798.541-1.416 1.062-1.856.529-.439 1.184-.659 1.965-.659.203 0 .395.012.574.037a2.71 2.71 0 0 1 .5.109v3.125c-.163-.057-.362-.101-.598-.134-.236-.041-.484-.061-.745-.061-.602 0-1.119.114-1.55.342a2.3 2.3 0 0 0-.976 1.013c-.22.439-.33.977-.33 1.611V245h-3.564zm9.411 0v-13.135h3.565V245h-3.565zm1.782-14.868c-.537 0-.992-.183-1.367-.549a1.8 1.8 0 0 1-.549-1.319 1.81 1.81 0 0 1 .549-1.33 1.88 1.88 0 0 1 1.367-.55c.538 0 .989.183 1.355.55.375.366.562.809.562 1.33 0 .513-.187.952-.562 1.319a1.84 1.84 0 0 1-1.355.549zm9.705 15.137c-1.204 0-2.234-.171-3.088-.513-.847-.35-1.506-.834-1.978-1.453a4.31 4.31 0 0 1-.854-2.148l-.013-.11h3.479l.025.098a1.97 1.97 0 0 0 .781 1.184c.399.284.952.427 1.66.427.456 0 .842-.057 1.16-.171.325-.114.574-.273.744-.476.18-.212.269-.46.269-.745v-.012c0-.35-.13-.631-.391-.842-.252-.22-.704-.403-1.355-.55l-2.221-.463c-.847-.179-1.555-.44-2.124-.782s-.997-.761-1.282-1.257c-.277-.505-.415-1.082-.415-1.733v-.013c0-.838.224-1.562.671-2.172.456-.619 1.095-1.095 1.917-1.429.83-.341 1.798-.512 2.905-.512 1.164 0 2.149.187 2.954.561.814.366 1.437.859 1.868 1.477a3.7 3.7 0 0 1 .696 2.063l.012.122h-3.296l-.012-.097a1.71 1.71 0 0 0-.659-1.148c-.383-.309-.904-.464-1.563-.464-.407 0-.765.057-1.074.171-.301.114-.533.277-.696.489a1.18 1.18 0 0 0-.244.744v.012c0 .228.053.432.159.611.114.171.301.321.561.451.269.131.623.244 1.062.342l2.222.464c1.375.293 2.364.724 2.966 1.294s.903 1.339.903 2.307v.012c0 .855-.244 1.603-.732 2.246-.488.635-1.164 1.132-2.026 1.49-.863.35-1.86.525-2.991.525zm12.915-.025c-1.473 0-2.559-.301-3.259-.903-.7-.611-1.05-1.607-1.05-2.991v-6.799h-1.856v-2.686h1.856v-3.198h3.601v3.198h2.441v2.686h-2.441v6.347c0 .611.134 1.038.403 1.282s.679.366 1.233.366l.427-.012.378-.049v2.613l-.744.097c-.293.033-.623.049-.989.049zm3.833-.244v-13.135h3.564v2.185h.098c.261-.748.716-1.342 1.367-1.782.651-.448 1.416-.671 2.295-.671.611 0 1.16.105 1.648.317.488.204.904.505 1.245.903s.586.883.733 1.453h.085a4.01 4.01 0 0 1 .891-1.416c.391-.399.859-.708 1.404-.928s1.135-.329 1.77-.329c.863 0 1.616.183 2.258.549s1.144.883 1.502 1.55c.358.659.537 1.433.537 2.32V245h-3.564v-8.093c0-.513-.086-.944-.257-1.294-.163-.35-.403-.615-.72-.794s-.712-.268-1.184-.268c-.448 0-.842.106-1.184.317a2.07 2.07 0 0 0-.794.855c-.179.366-.268.793-.268 1.281V245h-3.455v-8.203c0-.472-.085-.875-.256-1.209-.171-.341-.415-.598-.733-.769-.317-.179-.695-.268-1.135-.268-.456 0-.854.11-1.196.329-.342.212-.61.509-.806.891-.187.375-.281.81-.281 1.307V245h-3.564zm25.684.208c-.863 0-1.628-.167-2.295-.501-.659-.342-1.176-.81-1.551-1.404-.366-.602-.549-1.29-.549-2.063v-.012c0-.806.199-1.489.598-2.051.399-.569.977-1.017 1.734-1.343.765-.325 1.692-.524 2.783-.598l5.09-.317v2.209l-4.553.306c-.7.04-1.233.203-1.599.488a1.33 1.33 0 0 0-.537 1.111v.024c0 .48.187.859.561 1.135s.867.415 1.477.415c.537 0 1.013-.101 1.429-.305.423-.211.756-.5 1-.866a2.17 2.17 0 0 0 .367-1.233v-4.004c0-.586-.187-1.046-.562-1.38-.366-.333-.903-.5-1.611-.5-.659 0-1.188.134-1.587.403-.391.268-.635.614-.732 1.037l-.013.098h-3.271l.012-.134c.073-.814.346-1.53.818-2.149s1.123-1.102 1.953-1.452c.838-.35 1.831-.525 2.979-.525 1.139 0 2.124.183 2.954.549.83.358 1.473.867 1.928 1.526s.684 1.436.684 2.331V245h-3.552v-1.929h-.098c-.244.44-.557.822-.94 1.148-.382.317-.822.561-1.318.732-.489.171-1.022.257-1.599.257zm15.332.061c-1.205 0-2.234-.171-3.089-.513-.846-.35-1.505-.834-1.977-1.453a4.32 4.32 0 0 1-.855-2.148l-.012-.11h3.479l.024.098c.123.504.383.899.782 1.184s.952.427 1.66.427c.456 0 .842-.057 1.16-.171.325-.114.573-.273.744-.476a1.12 1.12 0 0 0 .269-.745v-.012c0-.35-.13-.631-.391-.842-.252-.22-.704-.403-1.355-.55l-2.222-.463c-.846-.179-1.554-.44-2.124-.782s-.997-.761-1.281-1.257c-.277-.505-.415-1.082-.415-1.733v-.013c0-.838.223-1.562.671-2.172.456-.619 1.095-1.095 1.917-1.429.83-.341 1.798-.512 2.905-.512 1.164 0 2.148.187 2.954.561.814.366 1.436.859 1.868 1.477.439.619.671 1.306.695 2.063l.013.122h-3.296l-.013-.097c-.056-.456-.276-.839-.659-1.148s-.903-.464-1.562-.464c-.407 0-.765.057-1.074.171-.302.114-.533.277-.696.489a1.18 1.18 0 0 0-.244.744v.012c0 .228.053.432.158.611.114.171.301.321.562.451.268.131.622.244 1.062.342l2.222.464c1.375.293 2.364.724 2.966 1.294s.903 1.339.903 2.307v.012c0 .855-.244 1.603-.732 2.246-.489.635-1.164 1.132-2.027 1.49-.862.35-1.859.525-2.99.525zM77.665 305l-6.274-17.615h2.966l4.785 14.527h.073l4.785-14.527h2.966L80.692 305h-3.027zm10.901 0v-12.891h2.661V305h-2.661zm1.331-14.929c-.431 0-.797-.151-1.099-.452a1.48 1.48 0 0 1-.452-1.086c0-.432.151-.794.452-1.087.301-.301.667-.451 1.099-.451a1.51 1.51 0 0 1 1.111.451c.301.293.452.655.452 1.087a1.48 1.48 0 0 1-.452 1.086 1.51 1.51 0 0 1-1.111.452zM94.084 305v-12.891h2.649v1.99h.085a3.46 3.46 0 0 1 1.355-1.636c.627-.407 1.359-.61 2.197-.61a4.01 4.01 0 0 1 1.599.305c.48.196.887.48 1.221.855.342.366.598.818.769 1.355h.085c.22-.521.525-.969.916-1.343.399-.374.859-.663 1.379-.867a4.73 4.73 0 0 1 1.709-.305c.855 0 1.595.179 2.222.537.627.35 1.111.842 1.453 1.477.35.635.525 1.388.525 2.258V305h-2.649v-8.24c0-.561-.098-1.037-.293-1.428a1.96 1.96 0 0 0-.83-.891c-.367-.212-.814-.317-1.343-.317s-.993.122-1.392.366c-.399.236-.712.565-.94.989-.219.423-.329.903-.329 1.44V305h-2.613v-8.435c0-.496-.101-.928-.305-1.294a2 2 0 0 0-.842-.842c-.358-.204-.79-.305-1.294-.305-.521 0-.985.13-1.392.39-.399.252-.716.598-.952 1.038-.228.431-.342.927-.342 1.489V305h-2.649zm24.633.232c-.846 0-1.595-.163-2.246-.488-.643-.326-1.147-.782-1.513-1.368-.359-.585-.538-1.265-.538-2.038v-.025c0-.748.188-1.395.562-1.94.374-.554.92-.985 1.636-1.294.716-.318 1.583-.509 2.6-.574l4.858-.281v1.856l-4.504.28c-.806.049-1.424.24-1.856.574-.423.326-.634.765-.634 1.318v.013a1.62 1.62 0 0 0 .647 1.355c.431.325 1 .488 1.709.488.626 0 1.184-.126 1.672-.379.496-.26.887-.61 1.172-1.049.293-.448.439-.948.439-1.502v-3.869c0-.708-.224-1.262-.671-1.661-.44-.406-1.074-.61-1.904-.61-.749 0-1.355.159-1.819.476a2 2 0 0 0-.867 1.245l-.024.098h-2.503l.012-.134a3.89 3.89 0 0 1 .757-1.978c.44-.586 1.042-1.046 1.807-1.379.765-.342 1.672-.513 2.722-.513 1.058 0 1.969.175 2.734.525s1.355.846 1.77 1.489c.424.635.635 1.388.635 2.258V305h-2.649v-2.002h-.073c-.252.456-.578.85-.977 1.184-.39.334-.838.594-1.342.781-.497.179-1.034.269-1.612.269zm13.135 0c-.846 0-1.595-.163-2.246-.488-.643-.326-1.148-.782-1.514-1.368-.358-.585-.537-1.265-.537-2.038v-.025c0-.748.187-1.395.562-1.94.374-.554.919-.985 1.635-1.294.717-.318 1.583-.509 2.601-.574l4.858-.281v1.856l-4.504.28c-.806.049-1.425.24-1.856.574-.423.326-.635.765-.635 1.318v.013c0 .569.216 1.021.647 1.355.432.325 1.001.488 1.709.488.627 0 1.184-.126 1.673-.379.496-.26.887-.61 1.172-1.049a2.69 2.69 0 0 0 .439-1.502v-3.869c0-.708-.224-1.262-.671-1.661-.44-.406-1.075-.61-1.905-.61-.748 0-1.355.159-1.819.476s-.752.733-.866 1.245l-.025.098h-2.502l.012-.134a3.88 3.88 0 0 1 .757-1.978c.439-.586 1.042-1.046 1.807-1.379.765-.342 1.672-.513 2.722-.513 1.058 0 1.969.175 2.734.525s1.355.846 1.77 1.489c.423.635.635 1.388.635 2.258V305h-2.649v-2.002h-.073c-.253.456-.578.85-.977 1.184-.39.334-.838.594-1.343.781-.496.179-1.033.269-1.611.269zm9.375-.232v-12.891h2.649v1.941h.085c.334-.659.826-1.188 1.477-1.587.66-.407 1.473-.61 2.442-.61 1.424 0 2.523.427 3.296 1.282.781.846 1.172 2.018 1.172 3.515V305h-2.661v-7.825c0-.984-.228-1.737-.684-2.258-.448-.529-1.135-.793-2.063-.793-.619 0-1.16.138-1.624.415-.455.276-.809.667-1.062 1.171-.252.497-.378 1.083-.378 1.758V305h-2.649zm19.434 0v-17.615h3.173l5.689 14.038h.085l5.689-14.038h3.174V305h-2.503v-12.976h-1.281l2.868-4.15L170.573 305h-2.014l-6.983-17.126 2.857 4.15h-1.27V305h-2.502zm24.365.232c-.846 0-1.595-.163-2.246-.488-.643-.326-1.148-.782-1.514-1.368-.358-.585-.537-1.265-.537-2.038v-.025c0-.748.187-1.395.562-1.94.374-.554.919-.985 1.635-1.294.716-.318 1.583-.509 2.6-.574l4.859-.281v1.856l-4.505.28c-.805.049-1.424.24-1.855.574-.423.326-.635.765-.635 1.318v.013c0 .569.216 1.021.647 1.355.431.325 1.001.488 1.709.488.627 0 1.184-.126 1.672-.379.497-.26.888-.61 1.172-1.049.293-.448.44-.948.44-1.502v-3.869c0-.708-.224-1.262-.672-1.661-.439-.406-1.074-.61-1.904-.61-.749 0-1.355.159-1.819.476s-.753.733-.866 1.245l-.025.098h-2.502l.012-.134c.073-.741.325-1.4.757-1.978.439-.586 1.041-1.046 1.806-1.379.765-.342 1.673-.513 2.723-.513 1.057 0 1.969.175 2.734.525s1.355.846 1.77 1.489c.423.635.635 1.388.635 2.258V305h-2.649v-2.002h-.073c-.253.456-.578.85-.977 1.184-.391.334-.838.594-1.343.781-.496.179-1.033.269-1.611.269zm8.411-.232l4.26-6.433-4.212-6.458h2.979l2.807 4.651h.074l2.771-4.651h2.929l-4.235 6.36 4.199 6.531h-2.93l-2.844-4.736h-.073L196.305 305h-2.868zm19.03 0v-17.615h2.747v7.447h9.033v-7.447h2.747V305h-2.747v-7.8h-9.033v7.8h-2.747zm17.7 0v-12.891h2.662V305h-2.662zm1.331-14.929a1.5 1.5 0 0 1-1.099-.452 1.48 1.48 0 0 1-.451-1.086c0-.432.15-.794.451-1.087.302-.301.668-.451 1.099-.451.44 0 .81.15 1.111.451.301.293.452.655.452 1.087a1.48 1.48 0 0 1-.452 1.086 1.51 1.51 0 0 1-1.111.452zm9.827 19.47c-1.099 0-2.059-.155-2.881-.464-.822-.301-1.481-.72-1.978-1.257-.488-.529-.793-1.127-.915-1.795l-.025-.097h2.637l.037.097c.171.407.525.741 1.062 1.001.545.269 1.229.403 2.05.403 1.05 0 1.86-.26 2.43-.781s.854-1.229.854-2.124v-1.88h-.073c-.244.472-.566.879-.964 1.221-.399.333-.859.594-1.38.781-.521.179-1.09.269-1.709.269-1.082 0-2.026-.265-2.832-.794-.805-.537-1.432-1.29-1.88-2.258-.439-.977-.659-2.124-.659-3.443v-.024c0-1.335.224-2.49.672-3.467.455-.976 1.086-1.733 1.892-2.27.813-.537 1.77-.806 2.868-.806.611 0 1.168.102 1.673.305.512.204.964.488 1.355.855.39.358.712.781.964 1.269h.073v-2.173h2.649v12.549c0 .977-.24 1.831-.72 2.564-.48.74-1.164 1.31-2.051 1.709-.887.407-1.937.61-3.149.61zm-.11-6.775c.683 0 1.278-.179 1.782-.537.513-.358.907-.859 1.184-1.501.285-.652.427-1.412.427-2.283v-.012c0-.871-.142-1.628-.427-2.271-.277-.651-.671-1.151-1.184-1.501-.504-.358-1.099-.537-1.782-.537-.692 0-1.294.179-1.807.537-.512.35-.907.846-1.184 1.489s-.415 1.4-.415 2.27v.025c0 .879.138 1.644.415 2.295.277.643.672 1.143 1.184 1.501.513.35 1.115.525 1.807.525zm8.911 2.234v-17.725h2.649v6.934h.073c.342-.749.846-1.327 1.514-1.733.675-.415 1.493-.623 2.453-.623.928 0 1.73.212 2.405.635a4.22 4.22 0 0 1 1.587 1.782c.374.765.562 1.668.562 2.71V305h-2.649v-7.507c0-1.066-.253-1.892-.757-2.478-.505-.594-1.221-.891-2.149-.891-.61 0-1.143.142-1.599.427s-.809.683-1.062 1.196c-.252.505-.378 1.095-.378 1.77V305h-2.649zM76.872 335v-14.88h-.073l-4.578 3.173v-2.612l4.639-3.296h2.71V335h-2.698zm13.464.317c-1.392 0-2.588-.37-3.589-1.11s-1.77-1.791-2.307-3.15c-.529-1.367-.793-2.987-.793-4.858v-.025c0-1.871.264-3.487.793-4.846.537-1.359 1.306-2.409 2.307-3.149s2.197-1.111 3.589-1.111c1.4 0 2.6.37 3.601 1.111s1.77 1.79 2.307 3.149.806 2.975.806 4.846v.025c0 1.871-.269 3.491-.806 4.858-.537 1.359-1.306 2.409-2.307 3.15s-2.201 1.11-3.601 1.11zm0-2.295c.83 0 1.538-.272 2.124-.817.594-.554 1.046-1.339 1.355-2.356.309-1.026.464-2.242.464-3.65v-.025c0-1.408-.155-2.62-.464-3.637s-.761-1.799-1.355-2.344c-.586-.545-1.294-.818-2.124-.818a2.99 2.99 0 0 0-2.112.818c-.586.545-1.034 1.326-1.343 2.344s-.464 2.229-.464 3.637v.025c0 1.408.155 2.624.464 3.65.309 1.017.757 1.802 1.343 2.356a2.99 2.99 0 0 0 2.112.817zm15.698 2.295c-1.391 0-2.588-.37-3.589-1.11s-1.77-1.791-2.307-3.15c-.529-1.367-.793-2.987-.793-4.858v-.025c0-1.871.264-3.487.793-4.846.537-1.359 1.306-2.409 2.307-3.149s2.198-1.111 3.589-1.111c1.4 0 2.6.37 3.601 1.111s1.77 1.79 2.307 3.149.806 2.975.806 4.846v.025c0 1.871-.269 3.491-.806 4.858-.537 1.359-1.306 2.409-2.307 3.15s-2.201 1.11-3.601 1.11zm0-2.295c.83 0 1.538-.272 2.124-.817.594-.554 1.046-1.339 1.355-2.356.309-1.026.464-2.242.464-3.65v-.025c0-1.408-.155-2.62-.464-3.637s-.761-1.799-1.355-2.344c-.586-.545-1.294-.818-2.124-.818a2.99 2.99 0 0 0-2.112.818c-.586.545-1.033 1.326-1.342 2.344s-.464 2.229-.464 3.637v.025c0 1.408.154 2.624.464 3.65.309 1.017.756 1.802 1.342 2.356a2.99 2.99 0 0 0 2.112.817zm15.698 2.295c-1.391 0-2.587-.37-3.588-1.11s-1.77-1.791-2.308-3.15c-.529-1.367-.793-2.987-.793-4.858v-.025c0-1.871.264-3.487.793-4.846.538-1.359 1.307-2.409 2.308-3.149s2.197-1.111 3.588-1.111c1.4 0 2.601.37 3.601 1.111s1.771 1.79 2.308 3.149.805 2.975.805 4.846v.025c0 1.871-.268 3.491-.805 4.858-.537 1.359-1.307 2.409-2.308 3.15s-2.201 1.11-3.601 1.11zm0-2.295c.83 0 1.539-.272 2.124-.817.595-.554 1.046-1.339 1.355-2.356.31-1.026.464-2.242.464-3.65v-.025c0-1.408-.154-2.62-.464-3.637s-.76-1.799-1.355-2.344c-.585-.545-1.294-.818-2.124-.818-.822 0-1.525.273-2.111.818s-1.034 1.326-1.343 2.344-.464 2.229-.464 3.637v.025c0 1.408.155 2.624.464 3.65.309 1.017.757 1.802 1.343 2.356.586.545 1.289.817 2.111.817zm15.699 2.295c-1.392 0-2.588-.37-3.589-1.11s-1.77-1.791-2.307-3.15c-.529-1.367-.794-2.987-.794-4.858v-.025c0-1.871.265-3.487.794-4.846.537-1.359 1.306-2.409 2.307-3.149s2.197-1.111 3.589-1.111c1.399 0 2.6.37 3.601 1.111s1.77 1.79 2.307 3.149.806 2.975.806 4.846v.025c0 1.871-.269 3.491-.806 4.858-.537 1.359-1.306 2.409-2.307 3.15s-2.202 1.11-3.601 1.11zm0-2.295c.83 0 1.538-.272 2.124-.817.594-.554 1.045-1.339 1.355-2.356.309-1.026.464-2.242.464-3.65v-.025c0-1.408-.155-2.62-.464-3.637s-.761-1.799-1.355-2.344c-.586-.545-1.294-.818-2.124-.818a2.99 2.99 0 0 0-2.112.818c-.586.545-1.034 1.326-1.343 2.344s-.464 2.229-.464 3.637v.025c0 1.408.155 2.624.464 3.65.309 1.017.757 1.802 1.343 2.356a2.99 2.99 0 0 0 2.112.817zM145.39 335l6.506-9.839-.647 2.173v-1.233l-5.798-8.716h3.271l4.358 6.824h1.257l-1.806 1.013 5.017-7.837h3.1l-5.981 8.802v1.245l-.647-2.173 6.519 9.741h-3.211l-4.394-6.714h-1.258l1.819-1.001-5.066 7.715h-3.039z" fill="#fff"/></svg>