<svg xmlns:xlink="http://www.w3.org/1999/xlink" xmlns="http://www.w3.org/2000/svg" fill="currentColor" viewBox="0 0 96 96" class="svg-icon " style="" width="96"  height="96" > <title stroke="#B1BAD3" fill="#B1BAD3" stroke-width="0px"></title> <path d="M80.149 60.675c-3.645-1.59 10.095-23.37-13.29-42.495 0 0 1.095 14.865-5.31 14.865C56.779 33 65.809 10.5 44.284 0c0 0 5.22 12-12.78 24-15 10.035-13.77 20.85-12.18 28.29 1.59 7.44-6.345 5.31-8.49 0 0 0-2.13 43.71 36.105 43.71s38.25-39.315 38.25-39.315-1.32 5.58-5.04 3.99Zm-11.085-3-7.425 7.275a2.854 2.854 0 0 0-.807 2.568l-.003-.018 1.755 10.215a2.82 2.82 0 0 1-4.11 2.994l.015.006-9.165-4.83a2.97 2.97 0 0 0-1.32-.306c-.48 0-.936.114-1.338.315l.018-.009-9.18 4.755a2.82 2.82 0 0 1-4.092-3.015l-.003.018 1.77-10.14a2.85 2.85 0 0 0-.81-2.505l-7.365-7.275a2.82 2.82 0 0 1 1.485-4.812l.018-.003 10.26-1.5a2.77 2.77 0 0 0 2.109-1.485l.006-.015 4.59-9.285a2.84 2.84 0 0 1 2.535-1.566c1.104 0 2.058.63 2.529 1.551l.006.015 4.59 9.285a2.772 2.772 0 0 0 2.1 1.5h.015l10.26 1.5a2.824 2.824 0 0 1 2.364 2.784c0 .798-.33 1.518-.864 2.031l.057-.048Z" stroke="#B1BAD3" fill="#B1BAD3" stroke-width="0px"></path></svg>