<svg xmlns:xlink="http://www.w3.org/1999/xlink" xmlns="http://www.w3.org/2000/svg" fill="currentColor" viewBox="0 0 64 64" class="svg-icon " style="" width="64"  height="64" > <title stroke="#B1BAD3" fill="#B1BAD3" stroke-width="0px"></title> <path d="m51.12 44.48 8.506 3.894a1.629 1.629 0 0 1 .01 2.956l-.01.004L32 64 4.374 51.334a1.629 1.629 0 0 1-.01-2.956l.01-.004 8.506-3.894 16.454 7.546L32 53.332l2.666-1.226L51.12 44.48Zm8.506-28.854a1.629 1.629 0 0 0 .01-2.956l-.01-.004L32 0 4.374 12.666a1.629 1.629 0 0 0-.01 2.956l.01.004L32 28.292l27.626-12.666ZM34.694 34.294l-2.666 1.254-2.666-1.254-16.48-7.626-8.506 3.866a1.625 1.625 0 0 0-.01 2.928l.01.004 27.626 12.666 27.626-12.666a1.625 1.625 0 0 0 .01-2.928l-.01-.004-8.506-3.866-16.428 7.626Z" stroke="#B1BAD3" fill="#B1BAD3" stroke-width="0px"></path></svg>