<svg xmlns:xlink="http://www.w3.org/1999/xlink" xmlns="http://www.w3.org/2000/svg" fill="none" viewBox="0 0 96 96" class="svg-icon " style="" width="96"  height="96" > <title stroke="#FFFFFF" fill="#FFFFFF" stroke-width="0px"></title> <path d="M48 96c26.51 0 48-21.49 48-48S74.51 0 48 0 0 21.49 0 48s21.49 48 48 48Z" fill="#F0F0F0" stroke="#FFFFFF" stroke-width="0px"></path><path d="M95.594 41.74H54.26V.405a48.48 48.48 0 0 0-12.522 0V41.74H.406a48.475 48.475 0 0 0 0 12.522H41.74v41.333a48.482 48.482 0 0 0 12.522 0V54.26h41.333a48.478 48.478 0 0 0 0-12.522Z" fill="#D80027" stroke="#FFFFFF" stroke-width="0px"></path></svg>